REM DIRINDEX 1\2,1\3,1\4,1\5
REM DIRNAME folder01,folder02,folder03,folder04,folder05
TITLE ""
FILE "1800_138.mp3" MP3
  TRACK 01 AUDIO
    TITLE "2:cjc044_4161"
    INDEX 01 00:00:00
  TRACK 02 AUDIO
    TITLE "0:"
    INDEX 01 00:01:09
  TRACK 03 AUDIO
    TITLE "3:cjc044_4162"
    INDEX 01 00:01:68
  TRACK 04 AUDIO
    TITLE "0:"
    INDEX 01 00:03:51
  TRACK 05 AUDIO
    TITLE "4:cjc044_4163"
    INDEX 01 00:04:29
  TRACK 06 AUDIO
    TITLE "0:"
    INDEX 01 00:05:48
  TRACK 07 AUDIO
    TITLE "5:cjc044_4164"
    INDEX 01 00:06:33
  TRACK 08 AUDIO
    TITLE "0:"
    INDEX 01 00:09:18
  TRACK 09 AUDIO
    TITLE "2:cjc044_4165"
    INDEX 01 00:11:05
  TRACK 10 AUDIO
    TITLE "0:"
    INDEX 01 00:12:14
  TRACK 11 AUDIO
    TITLE "3:cjc044_4166"
    INDEX 01 00:13:02
  TRACK 12 AUDIO
    TITLE "0:"
    INDEX 01 00:14:09
  TRACK 13 AUDIO
    TITLE "4:cjc044_4167"
    INDEX 01 00:14:64
  TRACK 14 AUDIO
    TITLE "0:"
    INDEX 01 00:16:00
  TRACK 15 AUDIO
    TITLE "5:cjc044_4168"
    INDEX 01 00:16:65
  TRACK 16 AUDIO
    TITLE "0:"
    INDEX 01 00:19:46
  TRACK 17 AUDIO
    TITLE "2:cjc044_4169"
    INDEX 01 00:21:29
  TRACK 18 AUDIO
    TITLE "0:"
    INDEX 01 00:22:42
  TRACK 19 AUDIO
    TITLE "3:cjc044_4170"
    INDEX 01 00:23:32
  TRACK 20 AUDIO
    TITLE "0:"
    INDEX 01 00:24:33
  TRACK 21 AUDIO
    TITLE "4:cjc044_4171"
    INDEX 01 00:25:19
  TRACK 22 AUDIO
    TITLE "0:"
    INDEX 01 00:26:36
  TRACK 23 AUDIO
    TITLE "5:cjc044_4172"
    INDEX 01 00:27:20
  TRACK 24 AUDIO
    TITLE "0:"
    INDEX 01 00:30:22
  TRACK 25 AUDIO
    TITLE "2:cjc044_4173"
    INDEX 01 00:32:07
  TRACK 26 AUDIO
    TITLE "0:"
    INDEX 01 00:33:15
  TRACK 27 AUDIO
    TITLE "3:cjc044_4174"
    INDEX 01 00:33:69
  TRACK 28 AUDIO
    TITLE "0:"
    INDEX 01 00:35:00
  TRACK 29 AUDIO
    TITLE "4:cjc044_4175"
    INDEX 01 00:35:61
  TRACK 30 AUDIO
    TITLE "0:"
    INDEX 01 00:36:66
  TRACK 31 AUDIO
    TITLE "5:cjc044_4176"
    INDEX 01 00:37:46
  TRACK 32 AUDIO
    TITLE "0:"
    INDEX 01 00:40:13
  TRACK 33 AUDIO
    TITLE "2:cjc044_4177"
    INDEX 01 00:42:00
  TRACK 34 AUDIO
    TITLE "0:"
    INDEX 01 00:43:09
  TRACK 35 AUDIO
    TITLE "3:cjc044_4178"
    INDEX 01 00:43:68
  TRACK 36 AUDIO
    TITLE "0:"
    INDEX 01 00:44:60
  TRACK 37 AUDIO
    TITLE "4:cjc044_4179"
    INDEX 01 00:45:45
  TRACK 38 AUDIO
    TITLE "0:"
    INDEX 01 00:46:56
  TRACK 39 AUDIO
    TITLE "5:cjc044_4180"
    INDEX 01 00:47:40
  TRACK 40 AUDIO
    TITLE "0:"
    INDEX 01 00:49:55
  TRACK 41 AUDIO
    TITLE "2:cjc044_4181"
    INDEX 01 00:51:38
  TRACK 42 AUDIO
    TITLE "0:"
    INDEX 01 00:52:36
  TRACK 43 AUDIO
    TITLE "3:cjc044_4182"
    INDEX 01 00:53:21
  TRACK 44 AUDIO
    TITLE "0:"
    INDEX 01 00:54:21
  TRACK 45 AUDIO
    TITLE "4:cjc044_4183"
    INDEX 01 00:55:04
  TRACK 46 AUDIO
    TITLE "0:"
    INDEX 01 00:56:00
  TRACK 47 AUDIO
    TITLE "5:cjc044_4184"
    INDEX 01 00:56:55
  TRACK 48 AUDIO
    TITLE "0:"
    INDEX 01 01:00:31
  TRACK 49 AUDIO
    TITLE "2:cjc044_4185"
    INDEX 01 01:02:06
  TRACK 50 AUDIO
    TITLE "0:"
    INDEX 01 01:03:18
  TRACK 51 AUDIO
    TITLE "3:cjc044_4186"
    INDEX 01 01:04:01
  TRACK 52 AUDIO
    TITLE "0:"
    INDEX 01 01:04:72
  TRACK 53 AUDIO
    TITLE "4:cjc044_4187"
    INDEX 01 01:05:54
  TRACK 54 AUDIO
    TITLE "0:"
    INDEX 01 01:06:63
  TRACK 55 AUDIO
    TITLE "5:cjc044_4188"
    INDEX 01 01:07:45
  TRACK 56 AUDIO
    TITLE "0:"
    INDEX 01 01:11:39
  TRACK 57 AUDIO
    TITLE "2:cjc044_4189"
    INDEX 01 01:13:28
  TRACK 58 AUDIO
    TITLE "0:"
    INDEX 01 01:14:27
  TRACK 59 AUDIO
    TITLE "3:cjc044_4190"
    INDEX 01 01:15:15
  TRACK 60 AUDIO
    TITLE "0:"
    INDEX 01 01:16:01
  TRACK 61 AUDIO
    TITLE "4:cjc044_4191"
    INDEX 01 01:16:61
  TRACK 62 AUDIO
    TITLE "0:"
    INDEX 01 01:17:61
  TRACK 63 AUDIO
    TITLE "5:cjc044_4192"
    INDEX 01 01:18:47
  TRACK 64 AUDIO
    TITLE "0:"
    INDEX 01 01:21:72
  TRACK 65 AUDIO
    TITLE "2:cjc044_4193"
    INDEX 01 01:23:50
  TRACK 66 AUDIO
    TITLE "0:"
    INDEX 01 01:24:57
  TRACK 67 AUDIO
    TITLE "3:cjc044_4194"
    INDEX 01 01:25:41
  TRACK 68 AUDIO
    TITLE "0:"
    INDEX 01 01:26:52
  TRACK 69 AUDIO
    TITLE "4:cjc044_4195"
    INDEX 01 01:27:30
  TRACK 70 AUDIO
    TITLE "0:"
    INDEX 01 01:28:39
  TRACK 71 AUDIO
    TITLE "5:cjc044_4196"
    INDEX 01 01:29:23
  TRACK 72 AUDIO
    TITLE "0:"
    INDEX 01 01:32:59
  TRACK 73 AUDIO
    TITLE "2:cjc044_4197"
    INDEX 01 01:34:46
  TRACK 74 AUDIO
    TITLE "0:"
    INDEX 01 01:35:45
  TRACK 75 AUDIO
    TITLE "3:cjc044_4198"
    INDEX 01 01:36:29
  TRACK 76 AUDIO
    TITLE "0:"
    INDEX 01 01:37:28
  TRACK 77 AUDIO
    TITLE "4:cjc044_4199"
    INDEX 01 01:38:12
  TRACK 78 AUDIO
    TITLE "0:"
    INDEX 01 01:39:14
  TRACK 79 AUDIO
    TITLE "5:cjc044_4200"
    INDEX 01 01:39:72
  TRACK 80 AUDIO
    TITLE "0:"
    INDEX 01 01:43:02
